{
	"asset":{
		"generator":"Khronos glTF Blender I/O v3.6.28",
		"version":"2.0"
	},
	"extensionsUsed":[
		"KHR_materials_unlit"
	],
	"scene":0,
	"scenes":[
		{
			"name":"Scene",
			"nodes":[
				2
			]
		}
	],
	"nodes":[
		{
			"mesh":0,
			"name":"Object_3",
			"scale":[
				0.5000000596046448,
				0.5000000596046448,
				0.5000000596046448
			]
		},
		{
			"children":[
				0
			],
			"name":"Fluorite.obj.cleaner.materialmerger.gles"
		},
		{
			"children":[
				1
			],
			"name":"Sketchfab_model",
			"rotation":[
				-0.01037184800952673,
				-0.4629285931587219,
				0.6718747615814209,
				0.5780778527259827
			]
		}
	],
	"materials":[
		{
			"doubleSided":true,
			"extensions":{
				"KHR_materials_unlit":{}
			},
			"name":"Fluorite",
			"pbrMetallicRoughness":{
				"baseColorTexture":{
					"index":0,
					"texCoord":0
				},
				"metallicFactor":0,
				"roughnessFactor":0.9
			}
		}
	],
	"meshes":[
		{
			"name":"Object_1.002",
			"primitives":[
				{
					"attributes":{
						"POSITION":0,
						"NORMAL":1,
						"TEXCOORD_0":2
					},
					"indices":3,
					"material":0
				}
			]
		}
	],
	"textures":[
		{
			"sampler":0,
			"source":0
		}
	],
	"images":[
		{
			"mimeType":"image/jpeg",
			"name":"Fluorite_baseColor",
			"uri":"Fluorite_baseColor.jpg"
		}
	],
	"accessors":[
		{
			"bufferView":0,
			"componentType":5126,
			"count":125151,
			"max":[
				0.5892512798309326,
				0.7892208099365234,
				0.7434291839599609
			],
			"min":[
				-0.7318719625473022,
				-0.8545694351196289,
				-0.7207378149032593
			],
			"type":"VEC3"
		},
		{
			"bufferView":1,
			"componentType":5126,
			"count":125151,
			"type":"VEC3"
		},
		{
			"bufferView":2,
			"componentType":5126,
			"count":125151,
			"type":"VEC2"
		},
		{
			"bufferView":3,
			"componentType":5125,
			"count":652626,
			"type":"SCALAR"
		}
	],
	"bufferViews":[
		{
			"buffer":0,
			"byteLength":1501812,
			"byteOffset":0,
			"target":34962
		},
		{
			"buffer":0,
			"byteLength":1501812,
			"byteOffset":1501812,
			"target":34962
		},
		{
			"buffer":0,
			"byteLength":1001208,
			"byteOffset":3003624,
			"target":34962
		},
		{
			"buffer":0,
			"byteLength":2610504,
			"byteOffset":4004832,
			"target":34963
		}
	],
	"samplers":[
		{
			"magFilter":9729,
			"minFilter":9987
		}
	],
	"buffers":[
		{
			"byteLength":6615336,
			"uri":"scene.bin"
		}
	]
}
