{
	"asset":{
		"generator":"Khronos glTF Blender I/O v3.6.28",
		"version":"2.0"
	},
	"extensionsUsed":[
		"KHR_materials_unlit"
	],
	"scene":0,
	"scenes":[
		{
			"name":"Scene",
			"nodes":[
				2
			]
		}
	],
	"nodes":[
		{
			"mesh":0,
			"name":"Object_2",
			"scale":[
				0.4000000059604645,
				0.4000000059604645,
				0.4000000059604645
			]
		},
		{
			"children":[
				0
			],
			"name":"aragonite.obj.cleaner.materialmerger.gles"
		},
		{
			"children":[
				1
			],
			"name":"Sketchfab_model",
			"rotation":[
				-0.3405405580997467,
				-0.46260562539100647,
				-0.7672687768936157,
				0.2851785123348236
			]
		}
	],
	"materials":[
		{
			"doubleSided":true,
			"extensions":{
				"KHR_materials_unlit":{}
			},
			"name":"aragonite",
			"pbrMetallicRoughness":{
				"baseColorTexture":{
					"index":0,
					"texCoord":0
				},
				"metallicFactor":0,
				"roughnessFactor":0.9
			}
		}
	],
	"meshes":[
		{
			"name":"Object_0.001",
			"primitives":[
				{
					"attributes":{
						"POSITION":0,
						"NORMAL":1,
						"TEXCOORD_0":2
					},
					"indices":3,
					"material":0
				}
			]
		}
	],
	"textures":[
		{
			"sampler":0,
			"source":0
		}
	],
	"images":[
		{
			"mimeType":"image/jpeg",
			"name":"aragonite_baseColor",
			"uri":"aragonite_baseColor.jpg"
		}
	],
	"accessors":[
		{
			"bufferView":0,
			"componentType":5126,
			"count":136559,
			"max":[
				1.0719666481018066,
				1.0398483276367188,
				0.7166823148727417
			],
			"min":[
				-0.9393212199211121,
				-1.1120238304138184,
				-0.8150160312652588
			],
			"type":"VEC3"
		},
		{
			"bufferView":1,
			"componentType":5126,
			"count":136559,
			"type":"VEC3"
		},
		{
			"bufferView":2,
			"componentType":5126,
			"count":136559,
			"type":"VEC2"
		},
		{
			"bufferView":3,
			"componentType":5125,
			"count":725922,
			"type":"SCALAR"
		}
	],
	"bufferViews":[
		{
			"buffer":0,
			"byteLength":1638708,
			"byteOffset":0,
			"target":34962
		},
		{
			"buffer":0,
			"byteLength":1638708,
			"byteOffset":1638708,
			"target":34962
		},
		{
			"buffer":0,
			"byteLength":1092472,
			"byteOffset":3277416,
			"target":34962
		},
		{
			"buffer":0,
			"byteLength":2903688,
			"byteOffset":4369888,
			"target":34963
		}
	],
	"samplers":[
		{
			"magFilter":9729,
			"minFilter":9987
		}
	],
	"buffers":[
		{
			"byteLength":7273576,
			"uri":"scene.bin"
		}
	]
}
