{
	"asset":{
		"generator":"Khronos glTF Blender I/O v3.6.28",
		"version":"2.0"
	},
	"extensionsUsed":[
		"KHR_materials_unlit"
	],
	"scene":0,
	"scenes":[
		{
			"name":"Scene",
			"nodes":[
				2
			]
		}
	],
	"nodes":[
		{
			"mesh":0,
			"name":"Object_2",
			"translation":[
				-0.007876943796873093,
				-0.004019622690975666,
				-0.002936172066256404
			]
		},
		{
			"children":[
				0
			],
			"name":"BiotiteGranite.obj.cleaner.materialmerger.gles"
		},
		{
			"children":[
				1
			],
			"name":"Sketchfab_model",
			"rotation":[
				0.6880483627319336,
				0.5154027342796326,
				0.3301641345024109,
				0.3897961676120758
			],
			"scale":[
				0.40000006556510925,
				0.40000006556510925,
				0.40000006556510925
			]
		}
	],
	"materials":[
		{
			"doubleSided":true,
			"extensions":{
				"KHR_materials_unlit":{}
			},
			"name":"BiotiteGranite",
			"pbrMetallicRoughness":{
				"baseColorTexture":{
					"index":0,
					"texCoord":0
				},
				"metallicFactor":0,
				"roughnessFactor":0.9
			}
		}
	],
	"meshes":[
		{
			"name":"Object_0",
			"primitives":[
				{
					"attributes":{
						"COLOR_0":0,
						"POSITION":1,
						"NORMAL":2,
						"TEXCOORD_0":3
					},
					"indices":4,
					"material":0
				}
			]
		}
	],
	"textures":[
		{
			"sampler":0,
			"source":0
		}
	],
	"images":[
		{
			"mimeType":"image/jpeg",
			"name":"BiotiteGranite_baseColor",
			"uri":"BiotiteGranite_baseColor.jpg"
		}
	],
	"accessors":[
		{
			"bufferView":0,
			"componentType":5123,
			"count":173880,
			"normalized":true,
			"type":"VEC4"
		},
		{
			"bufferView":1,
			"componentType":5126,
			"count":173880,
			"max":[
				1.0698814392089844,
				0.6699070334434509,
				0.8532677888870239
			],
			"min":[
				-1.045640230178833,
				-0.5884638428688049,
				-0.7969790697097778
			],
			"type":"VEC3"
		},
		{
			"bufferView":2,
			"componentType":5126,
			"count":173880,
			"type":"VEC3"
		},
		{
			"bufferView":3,
			"componentType":5126,
			"count":173880,
			"type":"VEC2"
		},
		{
			"bufferView":4,
			"componentType":5125,
			"count":862812,
			"type":"SCALAR"
		}
	],
	"bufferViews":[
		{
			"buffer":0,
			"byteLength":1391040,
			"byteOffset":0,
			"target":34962
		},
		{
			"buffer":0,
			"byteLength":2086560,
			"byteOffset":1391040,
			"target":34962
		},
		{
			"buffer":0,
			"byteLength":2086560,
			"byteOffset":3477600,
			"target":34962
		},
		{
			"buffer":0,
			"byteLength":1391040,
			"byteOffset":5564160,
			"target":34962
		},
		{
			"buffer":0,
			"byteLength":3451248,
			"byteOffset":6955200,
			"target":34963
		}
	],
	"samplers":[
		{
			"magFilter":9729,
			"minFilter":9987
		}
	],
	"buffers":[
		{
			"byteLength":10406448,
			"uri":"scene.bin"
		}
	]
}
